PathFileType	4	(X/Y/Z)	s09c0403.trc
DataRate	CameraRate	NumFrames	NumMarkers	Units	OrigDataRate	OrigDataStartFrame	OrigNumFrames
200	200	7	50	mm	200	500	2000
Frame#	Time	racr			lacr			c7			jug			rlel			rdr			llel			ldr			s2			lic			ric			lasi			rasi			rpsi			lpsi			rgt			lgt			rth1			rth2			rth3			rth4			rlfc			rmfc			rsh1			rsh2			rsh3			rsh4			rlmal			rmmal			rcal			rtoe			rmt5			lth1			lth2			lth4			lth3			llfc			lmfc			llmal			lmmal			lcal			lmt5			lsh1			lsh2			lsh3			lsh4			ltoe			SBIKE			LBIKE			RBIKE			
		X1	Y1	Z1	X2	Y2	Z2	X3	Y3	Z3	X4	Y4	Z4	X5	Y5	Z5	X6	Y6	Z6	X7	Y7	Z7	X8	Y8	Z8	X9	Y9	Z9	X10	Y10	Z10	X11	Y11	Z11	X12	Y12	Z12	X13	Y13	Z13	X14	Y14	Z14	X15	Y15	Z15	X16	Y16	Z16	X17	Y17	Z17	X18	Y18	Z18	X19	Y19	Z19	X20	Y20	Z20	X21	Y21	Z21	X22	Y22	Z22	X23	Y23	Z23	X24	Y24	Z24	X25	Y25	Z25	X26	Y26	Z26	X27	Y27	Z27	X28	Y28	Z28	X29	Y29	Z29	X30	Y30	Z30	X31	Y31	Z31	X32	Y32	Z32	X33	Y33	Z33	X34	Y34	Z34	X35	Y35	Z35	X36	Y36	Z36	X37	Y37	Z37	X38	Y38	Z38	X39	Y39	Z39	X40	Y40	Z40	X41	Y41	Z41	X42	Y42	Z42	X43	Y43	Z43	X44	Y44	Z44	X45	Y45	Z45	X46	Y46	Z46	X47	Y47	Z47	X48	Y48	Z48	X49	Y49	Z49	X50	Y50	Z50	
500	2.5000	700.554781	1305.531653	-142.009429	630.974972	1297.293727	-513.011179	655.530323	1400.969237	-325.598329	665.557879	1259.636229	-323.926353	565.142971	1113.726725	-12.802631	688.789044	911.769366	-53.321515	485.448389	1053.293507	-556.373587	667.773469	913.585984	-458.584216	199.519451	1220.509453	-223.832527	313.252624	1195.305544	-385.386190	350.009220	1187.201121	-94.822606	350.092743	1128.186963	-366.659902	371.927041	1125.445086	-116.936445	237.961486	1244.155489	-165.192123	229.515269	1251.726611	-272.729913	282.386015	1055.956611	-42.938905	271.650214	1089.460643	-419.862913	335.367305	920.069457	-48.971951	384.542019	848.071780	-57.609280	385.530950	759.337073	-67.222380	413.533470	857.821502	-77.992331	388.785231	652.901727	-96.653528	363.659660	642.685331	-193.948591	303.862687	590.336019	-66.089156	259.834086	513.291820	-81.470957	184.430938	469.095347	-80.027123	279.819397	498.696277	-113.161147	110.993546	396.934692	-79.575729	118.911517	404.635717	-157.894618	28.823976	414.349625	-121.168093	219.983346	230.397754	-126.100592	150.249822	274.100823	-60.526639	363.398157	978.373526	-427.471332	436.497188	933.651903	-423.495464	463.411330	957.077339	-410.743742	478.504263	854.727251	-425.990923	529.150573	760.716025	-412.283219	549.571538	742.366170	-315.886286	350.845892	432.714442	-415.524459	363.900038	446.141318	-339.497310	274.955535	390.812452	-376.261242	447.615673	360.820103	-436.522645	479.120968	671.071721	-434.103167	456.628537	587.263158	-423.373879	393.328119	525.057135	-420.827533	479.499729	577.663525	-392.273226	537.176097	389.245995	-368.149758	-64.591141	851.458887	-241.477223	21.160851	83.889282	-442.329306	21.142071	84.126665	-43.983022	
501	2.5050	700.046955	1306.504387	-140.659945	631.252843	1295.619935	-512.843919	655.815436	1400.128532	-325.753019	665.780780	1258.792144	-323.204172	565.554991	1114.082519	-11.907553	688.917938	911.935161	-52.577157	484.608553	1052.515954	-555.599128	667.533764	913.544044	-457.701299	199.045666	1219.823259	-225.874516	314.179877	1192.968710	-386.721188	348.926108	1188.050560	-95.754641	350.762737	1126.045685	-366.981553	371.119624	1126.271531	-117.329548	238.886858	1242.876744	-169.168810	229.497956	1250.446225	-275.715586	282.691945	1057.167394	-43.408568	271.381957	1085.890528	-420.439441	336.923822	921.396572	-49.340441	386.931231	850.059138	-57.790053	388.782030	761.421441	-67.088178	415.870588	859.986413	-78.172143	394.200045	654.976933	-96.724895	369.174602	644.905813	-194.141816	308.323721	594.003501	-66.493625	262.892308	518.189660	-81.668461	185.833506	475.833977	-80.553923	281.980990	503.098372	-113.669573	110.726143	405.760088	-80.150870	119.726862	412.725146	-158.623839	28.678261	423.998006	-121.546050	219.053882	239.177967	-124.871892	148.766658	282.820695	-60.580599	361.448613	974.501294	-428.374372	433.636152	929.140381	-424.224727	461.345371	951.900647	-411.780539	475.060724	849.164822	-426.265708	524.988078	754.500080	-411.727049	545.542403	736.849329	-316.289835	351.760066	423.656578	-415.487585	364.498458	437.342090	-340.081278	276.604082	381.182411	-376.162071	449.241254	351.974756	-436.451163	476.063141	664.194706	-434.078110	455.084295	580.044466	-423.425783	392.935149	516.689916	-420.814868	478.133637	570.816592	-392.302346	538.810009	380.622516	-368.139323	-64.625191	851.423256	-241.446469	21.145223	83.889777	-442.348755	21.154576	84.131385	-43.987010	
502	2.5100	699.416227	1307.210617	-139.472312	631.505957	1294.061845	-512.483041	656.091081	1399.274969	-325.772735	666.097106	1257.964550	-322.324909	565.616792	1114.213034	-11.492983	688.918393	912.402036	-51.911203	484.257284	1051.605035	-554.851382	667.512744	913.546184	-456.812763	199.259031	1218.106253	-228.190667	315.212785	1190.394793	-388.065359	347.841097	1188.574663	-96.795527	351.532526	1123.880811	-367.369198	370.300902	1126.775537	-117.693414	237.627876	1242.533901	-171.427037	229.440826	1247.923140	-280.788378	283.059366	1058.079805	-43.992663	271.161432	1082.007168	-421.021355	338.603265	922.476579	-49.952426	389.468850	851.695684	-58.089416	392.463697	763.125513	-66.923262	418.308956	861.938768	-78.517178	399.743327	656.962952	-96.777129	375.045383	647.025259	-194.344246	312.770992	597.764291	-66.777812	265.485955	523.202185	-82.093720	187.421446	482.770049	-81.007261	284.325516	507.526240	-114.019568	110.824006	414.608043	-80.609608	120.291006	421.293892	-159.210818	28.967858	433.731344	-121.989093	217.478900	247.054210	-124.761158	147.551421	291.473447	-60.601036	359.649108	970.237900	-428.943293	431.109441	924.015565	-425.085460	459.385001	946.535060	-412.636194	471.348792	843.326777	-426.557726	520.647880	748.277155	-411.711909	541.306387	731.079518	-316.507271	352.382347	414.810522	-415.583359	365.355588	428.547770	-340.211695	278.443000	371.589695	-375.707697	450.612049	342.910053	-436.390115	472.782700	657.357253	-434.073708	453.239402	572.896016	-423.430981	392.306174	508.296357	-420.715437	476.597440	563.993844	-392.451819	540.055787	371.736861	-368.103032	-64.620937	851.362272	-241.425034	21.135123	83.893844	-442.354934	21.136047	84.152200	-43.999200	
503	2.5150	698.579099	1307.830441	-138.327330	631.798032	1292.478648	-511.801587	656.326050	1398.408227	-325.740101	666.403867	1257.202964	-321.357920	565.833389	1114.355718	-10.739630	689.103092	912.533229	-51.443239	483.816714	1050.795808	-553.847699	667.578334	913.422695	-455.805684	199.943643	1215.339549	-231.577463	316.293169	1187.818756	-389.630417	346.396445	1188.715605	-97.728281	352.418564	1121.552419	-367.530375	369.506682	1127.099042	-117.990038	237.540783	1241.430038	-174.408577	229.321370	1245.842595	-283.920887	283.485399	1058.558438	-44.552016	270.934404	1077.760400	-421.656108	340.418577	923.406756	-50.635950	392.256888	853.079467	-58.674772	396.295104	764.688630	-66.920308	420.872521	863.809344	-79.010674	405.377584	658.846306	-96.831207	381.264056	649.088857	-194.470941	317.300806	601.711271	-67.048497	268.269577	528.274088	-82.345334	189.272077	489.683974	-81.393776	286.900085	512.009500	-114.013926	111.456659	423.441767	-80.907593	121.033530	429.932356	-159.461891	29.547142	443.467850	-122.434849	216.392909	255.037741	-124.820211	146.757074	300.147897	-60.608898	357.815589	965.667088	-429.479722	428.551083	918.691042	-425.642566	456.889930	941.175631	-413.722604	467.764162	837.276631	-426.572740	516.053283	741.898706	-411.927237	536.864329	725.070865	-316.628015	352.706060	405.956292	-415.588597	366.186446	419.222705	-339.866327	279.293153	362.291671	-375.677968	451.466634	333.930742	-436.315009	469.271864	650.344214	-433.912505	451.243302	565.623300	-423.511611	391.380680	499.961051	-420.656243	474.810483	556.977240	-392.604889	540.945407	362.685735	-368.030695	-64.615531	851.364440	-241.462832	21.122890	83.883323	-442.370784	21.157445	84.141237	-44.017996	
504	2.5200	697.496521	1308.396478	-137.365739	632.208710	1290.933354	-511.145188	656.465393	1397.633741	-325.617589	666.802828	1256.434739	-320.106259	565.856706	1114.378936	-10.019928	689.214817	912.647492	-51.264109	483.330861	1049.928595	-552.794340	667.691833	913.334533	-455.031456	199.171441	1213.892148	-233.913929	317.312617	1184.998737	-391.028811	345.110150	1188.883736	-98.725039	353.324156	1119.180953	-367.735873	368.623891	1127.182188	-118.388309	236.623980	1240.160124	-176.999466	229.028344	1243.481656	-286.748547	283.976312	1058.703184	-45.171998	270.783167	1073.274666	-422.321405	342.414421	924.101548	-51.358750	394.957484	854.546071	-59.362805	400.489919	766.138674	-67.110036	423.752169	865.469528	-79.531089	411.145377	660.799071	-96.929924	387.624499	651.022453	-194.571662	321.699278	605.947137	-67.392096	271.230681	533.456526	-82.521181	191.370862	496.622457	-81.631787	290.301342	516.437655	-113.585931	112.437085	432.211384	-81.150911	122.316691	438.898418	-159.754280	30.470917	453.193173	-122.771716	215.714199	263.094776	-124.776734	146.541694	308.814690	-60.653432	356.060696	960.819410	-429.919313	425.937726	912.700960	-426.668557	454.821028	935.106364	-414.732564	464.135740	830.934128	-426.409673	511.730238	735.366816	-411.433132	532.122919	718.904844	-316.554286	352.703133	397.086760	-415.573730	366.526548	410.256239	-339.754281	279.704254	353.189767	-375.654885	451.926498	324.630948	-436.285138	465.497902	643.303771	-433.624264	449.007943	557.937482	-422.864069	390.137671	491.710180	-420.574069	472.739596	550.048121	-392.647596	541.417502	353.562642	-367.986687	-64.633873	851.378298	-241.461532	21.135169	83.904268	-442.385782	21.121362	84.115232	-44.029118	
505	2.5250	696.399006	1309.067192	-136.074176	632.835887	1289.452889	-510.383488	656.515688	1396.808022	-325.379002	667.105136	1255.745174	-318.784525	565.787452	1114.317510	-9.219755	689.287811	912.699463	-51.378295	483.327491	1048.944429	-551.744726	667.913601	913.256551	-454.364131	198.354194	1212.105271	-236.097469	318.295034	1182.264843	-392.399934	343.889173	1188.734778	-99.802123	354.289201	1116.786713	-368.070650	367.775371	1127.144749	-118.727884	233.916781	1239.628376	-177.915531	228.853294	1240.803227	-289.925268	284.364905	1058.352773	-45.859428	270.663226	1068.429363	-423.016551	344.543001	924.558022	-52.172795	398.158064	855.729589	-59.900998	405.221204	767.407983	-67.303390	426.720657	867.210711	-80.176145	417.141038	662.678463	-96.956381	393.559173	652.299098	-195.292447	326.363447	610.196201	-67.578228	274.333308	538.704474	-82.663568	193.738867	503.742393	-81.858944	293.373904	521.090823	-113.294473	113.663516	441.014674	-81.325558	123.759510	447.645703	-159.905894	31.926798	462.931108	-122.953763	215.503217	271.397558	-124.858536	146.798001	317.682945	-60.717072	354.052456	955.772764	-430.736606	423.479455	906.756302	-426.903835	452.784711	928.612913	-415.485290	460.436937	824.076992	-426.290872	507.028242	728.612903	-411.030421	527.240444	712.568042	-316.456993	352.378032	388.234615	-415.676013	366.292998	401.243336	-339.853017	279.778386	344.154082	-375.583122	451.940275	315.464427	-436.228898	461.657950	636.261729	-433.492883	446.421246	550.484601	-422.838881	388.680480	483.347695	-420.471958	470.366344	542.891595	-392.635373	541.518322	344.189328	-367.945377	-64.651724	851.392119	-241.450252	21.106085	83.886448	-442.381390	21.120850	84.120433	-44.042467	
506	2.5300	695.230253	1309.681478	-134.644055	633.588944	1288.017880	-509.552253	656.492229	1396.028844	-324.974975	667.477153	1255.103229	-317.356272	565.569914	1114.190802	-8.357726	689.315389	912.694247	-51.719128	483.008481	1048.209955	-550.519238	668.232815	913.059981	-453.644896	197.316326	1209.891135	-238.590548	319.302959	1179.156580	-393.762513	342.611815	1188.413287	-100.849020	355.298834	1114.269084	-367.990556	366.897437	1126.851411	-119.134789	232.591264	1237.994458	-180.249051	226.415947	1240.360793	-288.679616	284.872137	1057.869244	-46.521719	270.540731	1063.462651	-423.792309	346.837737	924.962089	-52.901717	401.667375	856.871468	-60.470085	410.136751	768.701588	-67.672948	429.926097	868.726396	-80.911036	423.078713	664.784909	-97.158739	400.494410	654.298180	-194.963863	331.289924	614.354790	-67.722001	277.746511	544.183243	-82.685160	196.350738	510.878796	-81.939105	296.598093	526.029354	-112.916893	115.329302	449.793032	-81.398688	125.461244	456.876078	-159.856177	33.716178	472.749668	-122.984299	215.924352	279.726372	-124.927018	147.479926	326.537552	-60.821604	352.224200	950.435578	-431.178900	420.942767	900.355812	-427.223505	450.782601	922.181983	-417.014396	456.816431	817.171938	-425.668009	502.119465	721.764908	-410.639001	522.050675	705.920833	-316.150032	351.503986	379.442043	-415.726776	366.108450	392.705121	-340.236106	279.401214	335.307216	-375.609851	451.546346	306.146096	-436.128340	457.528138	629.094129	-433.111926	443.579857	543.132135	-422.706947	386.832844	475.083282	-420.361524	467.678344	535.712676	-392.519100	541.465312	335.542418	-368.945510	-64.649384	851.402456	-241.415852	21.105698	83.864170	-442.387928	21.125725	84.085594	-44.050425	
